<svg viewBox="0 0 24 24" width="24" height="24" fill="none" xmlns="http://www.w3.org/2000/svg"><rect width="24" height="24" rx="0" ry="0"/><path fill-rule="evenodd" clip-rule="evenodd" d="M16.856 18.245c-.077.287-.199.55-.356.783v-4.09l2.303-8.595a1.4 1.4 0 00-.99-1.714l-5.795-1.553a1.4 1.4 0 00-1.412.424h-1.38a2.6 2.6 0 013.102-1.583l5.796 1.553a2.6 2.6 0 011.838 3.184l-3.106 11.591z" fill="#139DB8"/><path fill-rule="evenodd" clip-rule="evenodd" d="M13 21.6a2.6 2.6 0 002.6-2.6V7A2.6 2.6 0 0013 4.4H7A2.6 2.6 0 004.4 7v12A2.6 2.6 0 007 21.6h6zm1.4-2.6a1.4 1.4 0 01-1.4 1.4H7A1.4 1.4 0 015.6 19V7A1.4 1.4 0 017 5.6h6A1.4 1.4 0 0114.4 7v12zM7.6 7a.6.6 0 10-1.2 0v1a.6.6 0 001.2 0V7zm6 11a.6.6 0 10-1.2 0v1a.6.6 0 001.2 0v-1zm-2.469-2.454a1.6 1.6 0 01-2.262 0L7.454 14.13a1.6 1.6 0 010-2.263l1.415-1.414a1.6 1.6 0 012.262 0l1.415 1.414a1.6 1.6 0 010 2.263l-1.415 1.415zm-1.414-.849a.4.4 0 00.566 0l1.414-1.414a.4.4 0 000-.566l-1.414-1.414a.4.4 0 00-.566 0l-1.414 1.414a.4.4 0 000 .566l1.414 1.414z" fill="#FFB6B6"/><path fill-rule="evenodd" clip-rule="evenodd" d="M7 6.4a.6.6 0 01.6.6v1a.6.6 0 11-1.2 0V7a.6.6 0 01.6-.6zm6 11a.6.6 0 01.6.6v1a.6.6 0 11-1.2 0v-1a.6.6 0 01.6-.6zm-4.131-1.854a1.6 1.6 0 002.262 0l1.415-1.415a1.6 1.6 0 000-2.263l-1.415-1.414a1.6 1.6 0 00-2.262 0l-1.415 1.414a1.6 1.6 0 000 2.263l1.415 1.415zm1.414-.849a.4.4 0 01-.566 0l-1.414-1.414a.4.4 0 010-.566l1.414-1.414a.4.4 0 01.566 0l1.414 1.414a.4.4 0 010 .566l-1.414 1.414z" fill="#000" fill-opacity=".3"/></svg>