<svg viewBox="0 0 24 24" width="24" height="24" xmlns="http://www.w3.org/2000/svg"><rect width="24" height="24" fill="none" rx="0" ry="0"/><path d="M6.2 10.4h11.6c.28 0 .5-.22.5-.5V3.7c0-.28-.22-.5-.5-.5H6.2c-.28 0-.5.22-.5.5v6.2c0 .28.22.5.5.5zm9.15 4.05a.75.75 0 11-1.5 0 .75.75 0 011.5 0zm0 3.5a.75.75 0 11-1.5 0 .75.75 0 011.5 0zm1-1a.75.75 0 100-1.5.75.75 0 000 1.5zm-2.75-.75a.75.75 0 11-1.5 0 .75.75 0 011.5 0zm-5.2 1.5a1.5 1.5 0 100-3 1.5 1.5 0 000 3z" fill="#13b8ac"/><path d="M6.1 2c-.88 0-1.6.72-1.6 1.6v16.8c0 .88.72 1.6 1.6 1.6h11.8c.88 0 1.6-.72 1.6-1.6V3.6c0-.88-.72-1.6-1.6-1.6H6.1zm11.7 8.4H6.2c-.28 0-.5-.22-.5-.5V3.7c0-.28.22-.5.5-.5h11.6c.28 0 .5.22.5.5v6.2c0 .28-.22.5-.5.5zm-3.2 4.8a.75.75 0 100-1.5.75.75 0 000 1.5zm0 3.5a.75.75 0 100-1.5.75.75 0 000 1.5zm2.5-2.5a.75.75 0 11-1.5 0 .75.75 0 011.5 0zm-4.25.75a.75.75 0 100-1.5.75.75 0 000 1.5zM9.9 16.2a1.5 1.5 0 11-3 0 1.5 1.5 0 013 0z" fill="#7440e0"/><path d="M6.1 2h11.8c.88 0 1.6.72 1.6 1.6V10c0 .88-.72 1.6-1.6 1.6H6.1c-.88 0-1.6-.72-1.6-1.6V3.6c0-.88.72-1.6 1.6-1.6zm.1 8.4h11.6c.28 0 .5-.22.5-.5V3.7c0-.28-.22-.5-.5-.5H6.2c-.28 0-.5.22-.5.5v6.2c0 .28.22.5.5.5z"/></svg>