<svg viewBox="0 0 24 24" fill="none" xmlns="http://www.w3.org/2000/svg"><path fill-rule="evenodd" clip-rule="evenodd" d="M3.998 9.801h1.63c.33 0 .6.27.6.6 0 .33-.27.6-.6.6h-1.63c-.55 0-1 .45-1 1s.45 1 1 1h6.21c.33 0 .6.27.6.6 0 .33-.27.6-.6.6h-6.21c-1.21 0-2.2-.99-2.2-2.2 0-1.21.99-2.2 2.2-2.2z" fill="#FCAACF"/><path fill-rule="evenodd" clip-rule="evenodd" d="M14.678 14.201h-1.77c-.33 0-.6-.27-.6-.6 0-.33.27-.6.6-.6h3.165a.62.62 0 01.485.17c.078.075.13.167.156.264a.596.596 0 01-.213.643l-3.213 3.213a.996.996 0 000 1.41c.38.38 1.04.38 1.42 0l6-6c.04-.04.09-.09.12-.16 0-.01.05-.09.06-.1l.04-.1a.78.78 0 01.02-.07c.01-.032.02-.065.02-.07a.75.75 0 000-.42c0-.005-.01-.035-.02-.065a.638.638 0 01-.02-.065l-.04-.1-.06-.11c-.02-.033-.05-.067-.078-.1a1.703 1.703 0 01-.042-.05l-6-6c-.39-.39-1.03-.39-1.42 0a.99.99 0 00-.29.71c0 .27.1.52.29.71l3.27 3.26a.602.602 0 01-.42 1.03h-7.81c-.33 0-.6-.27-.6-.6 0-.33.27-.6.6-.6h6.36l-2.25-2.25c-.42-.42-.64-.97-.64-1.56 0-.59.23-1.14.64-1.56.83-.83 2.28-.83 3.11 0l6 6c.1.1.19.21.28.34.018.025.033.053.053.093.013.024.027.053.047.087.04.06.07.12.1.2.022.052.033.093.053.167l.027.093c.006.013.021.064.034.106l.016.054a2.077 2.077 0 01-.03.976c-.009.029-.019.062-.03.104-.02.07-.04.13-.07.19-.03.07-.06.13-.12.24a.753.753 0 01-.056.1c-.012.018-.02.033-.024.04-.08.12-.17.23-.27.33l-6 6c-.42.42-.97.64-1.55.64-.59 0-1.14-.23-1.56-.64-.42-.42-.64-.97-.64-1.56 0-.59.23-1.14.64-1.56l2.23-2.23z" fill="#2249B3"/></svg>